<?xml version="1.0" encoding="utf-8"?>
<!-- Generator: Adobe Illustrator 16.0.0, SVG Export Plug-In . SVG Version: 6.00 Build 0)  -->
<!DOCTYPE svg PUBLIC "-//W3C//DTD SVG 1.1//EN" "http://www.w3.org/Graphics/SVG/1.1/DTD/svg11.dtd">
<svg version="1.1" xmlns="http://www.w3.org/2000/svg" xmlns:xlink="http://www.w3.org/1999/xlink"
	 viewBox="-2 -2 68 68" xml:space="preserve">
<path stroke="#000000" stroke-width="4" stroke-miterlimit="10" d="M32,0C14.327,0,0,14.327,0,32h64C64,14.327,49.673,0,32,0z"/>
<path fill="#FFFFFF" stroke="#000000" stroke-width="4" stroke-miterlimit="10" d="M0,32c0,17.673,14.327,32,32,32
	c17.673,0,32-14.327,32-32H0z"/>
<path fill="#FFFFFF" stroke="#000000" stroke-width="4" stroke-miterlimit="10" d="M41,32c0,4.964-4.03,9-9,9c-4.968,0-9-4.036-9-9
	c0-4.966,4.032-9,9-9C36.97,23,41,27.034,41,32z"/>
<path fill="none" stroke="#FFFFFF" stroke-width="4" stroke-linecap="round" stroke-miterlimit="10" d="M7.657,20.27
	c2.562-5.325,6.816-9.664,12.063-12.337"/>
</svg>